<?xml version="1.0" encoding="UTF-8" standalone="no"?>
<!-- pixbr favicon — green hex with the enlarged white PIX mark. -->
<svg width="256" height="256" viewBox="0 0 256 256" version="1.1"
   xmlns="http://www.w3.org/2000/svg">
  <defs>
    <linearGradient id="favGrad" x1="0%" y1="0%" x2="100%" y2="100%">
      <stop offset="0%" stop-color="#13a884" />
      <stop offset="100%" stop-color="#008060" />
    </linearGradient>
  </defs>
  <polygon points="128,18 224,73 224,183 128,238 32,183 32,73"
     fill="url(#favGrad)" stroke="#006b51" stroke-width="4" />
  <!-- PIX diamond mark, scaled up and centred -->
  <path transform="translate(128,128) scale(6.6) translate(-109.25,-101)"
     d="m 103.60238,99.684329 1.49696,-1.49695 h 1.08461 c 0.069,0 0.13366,0.01109 0.18948,0.03278 0.0491,0.0191 0.0924,0.04635 0.12661,0.08128 0,0.006 1.9315,1.939041 2.13663,2.144161 0.19163,0.19161 0.44511,0.28733 0.69899,0.28732 0.25305,-8e-5 0.50603,-0.0959 0.69782,-0.28732 0.71414,-0.714125 1.43109,-1.425498 2.14066,-2.144161 0.0342,-0.03494 0.0776,-0.06217 0.12661,-0.08128 0.0558,-0.02171 0.12046,-0.03278 0.18947,-0.03278 h 1.08192 l 1.49695,1.49695 c 0.76098,0.760981 0.76098,2.006241 0,2.767241 l -1.49695,1.49693 h -1.08192 c -0.069,0 -0.13365,-0.0111 -0.18947,-0.0328 -0.0491,-0.0191 -0.0925,-0.0463 -0.12661,-0.0813 -0.70957,-0.71866 -1.42652,-1.43002 -2.14066,-2.14416 -0.19179,-0.19145 -0.44477,-0.28724 -0.69782,-0.2873 -0.25388,-3e-5 -0.50736,0.0957 -0.69899,0.2873 -0.20513,0.20513 -2.13663,2.13814 -2.13663,2.14416 -0.0342,0.0349 -0.0776,0.0622 -0.12661,0.0813 -0.0558,0.0217 -0.12046,0.0328 -0.18948,0.0328 h -1.08461 l -1.49696,-1.49693 c -0.76098,-0.761 -0.76098,-2.00626 0,-2.767241 z m 2.16699,-2.166984 2.18274,-2.182742 c 0.76101,-0.76101 2.00624,-0.76101 2.76725,0 l 2.18274,2.182742 h -0.41188 c -0.29299,0 -0.58751,0.106379 -0.79443,0.317525 -0.004,-0.0035 -1.95397,1.957553 -2.13408,2.137659 -0.0624,0.06194 -0.14435,0.09298 -0.22605,0.09298 -0.0812,0 -0.16282,-0.0312 -0.22527,-0.09362 -0.19816,-0.198147 -2.13164,-2.137352 -2.13202,-2.137015 -0.2069,-0.211146 -0.50142,-0.317525 -0.79442,-0.317525 z m 7.13273,7.101205 -2.18274,2.18273 c -0.76101,0.76099 -2.00624,0.76099 -2.76725,0 l -2.18274,-2.18273 h 0.41458 c 0.293,0 0.58752,-0.10638 0.79442,-0.31754 1.8e-4,1.8e-4 1.93386,-1.93885 2.13202,-2.13701 0.0625,-0.0624 0.1441,-0.0936 0.22527,-0.0936 0.0817,0 0.16363,0.031 0.22605,0.093 0.18011,0.1801 2.13051,2.1411 2.13408,2.13766 0.20692,0.21115 0.50144,0.31754 0.79443,0.31754 z"
     style="clip-rule:evenodd;fill:#ffffff;fill-rule:evenodd" />
</svg>
